<svg id="Layer_1" data-name="Layer 1" xmlns="http://www.w3.org/2000/svg" viewBox="0 0 1473.81 4667.56"><defs><style>.cls-1{fill:#ca351e;stroke:#ca351e;}.cls-1,.cls-3,.cls-4{stroke-miterlimit:10;stroke-width:2.84px;}.cls-1,.cls-2,.cls-4{opacity:0.07;}.cls-1,.cls-4{isolation:isolate;}.cls-3,.cls-4{fill:#2a4bb3;stroke:#2a4bb3;}</style></defs><title>back_HP</title><g id="back_HP" data-name="back HP"><g id="Group_76" data-name="Group 76"><g id="Group_74" data-name="Group 74"><rect id="Rectangle_31" data-name="Rectangle 31" class="cls-1" x="611.89" y="93.27" width="477.5" height="102.1" transform="translate(-2.96 269.93) rotate(-18)"/><g id="Group_65" data-name="Group 65" class="cls-2"><rect id="Rectangle_20" data-name="Rectangle 20" class="cls-3" x="1084.67" y="287.12" width="329.47" height="329.47" transform="translate(270.28 1349.9) rotate(-62.41)"/></g><path id="Path_82" data-name="Path 82" class="cls-4" d="M327,585.78A172.2,172.2,0,0,0,101,325.86l-.5.43L2,213,244.69,2l423,486.57L425,699.54,326.46,586.21Z" transform="translate(0 0)"/><circle id="Ellipse_6" data-name="Ellipse 6" class="cls-1" cx="827.35" cy="699.52" r="151.63"/></g><g id="Group_75" data-name="Group 75"><rect id="Rectangle_31-2" data-name="Rectangle 31-2" class="cls-1" x="572.12" y="877.58" width="102.1" height="477.5" transform="translate(-631.09 1364.03) rotate(-72)"/><g id="Group_65-2" data-name="Group 65-2" class="cls-2"><rect id="Rectangle_20-2" data-name="Rectangle 20-2" class="cls-3" x="59.57" y="1259.13" width="329.57" height="329.57" transform="translate(-633.84 265.74) rotate(-27.58)"/></g><path id="Path_82-2" data-name="Path 82-2" class="cls-4" d="M1146.86,1557.78a172.2,172.2,0,0,1,225.95-259.92l.5.43L1471.81,1185,1229.12,974l-423,486.57,242.69,211,98.51-113.32Z" transform="translate(0 0)"/><circle id="Ellipse_6-2" data-name="Ellipse 6-2" class="cls-1" cx="646.47" cy="1671.52" r="151.63"/></g></g><g id="Group_114" data-name="Group 114"><g id="Group_74-2" data-name="Group 74-2"><rect id="Rectangle_31-3" data-name="Rectangle 31-3" class="cls-1" x="611.89" y="2069.27" width="477.5" height="102.1" transform="translate(-613.58 366.64) rotate(-18)"/><g id="Group_65-3" data-name="Group 65-3" class="cls-2"><rect id="Rectangle_20-3" data-name="Rectangle 20-3" class="cls-3" x="1084.67" y="2263.12" width="329.47" height="329.47" transform="translate(-1481.01 2410.72) rotate(-62.41)"/></g><path id="Path_82-3" data-name="Path 82-3" class="cls-4" d="M327,2561.78A172.2,172.2,0,0,0,101,2301.86l-.5.43L2,2189l242.69-211,423,486.57L425,2675.54l-98.51-113.32Z" transform="translate(0 0)"/><circle id="Ellipse_6-3" data-name="Ellipse 6-3" class="cls-1" cx="827.35" cy="2675.52" r="151.63"/></g><g id="Group_75-2" data-name="Group 75-2"><rect id="Rectangle_31-4" data-name="Rectangle 31-4" class="cls-1" x="572.12" y="2853.58" width="102.1" height="477.5" transform="translate(-2510.38 2729.41) rotate(-72)"/><g id="Group_65-4" data-name="Group 65-4" class="cls-2"><rect id="Rectangle_20-4" data-name="Rectangle 20-4" class="cls-3" x="59.57" y="3235.13" width="329.57" height="329.57" transform="translate(-1548.82 490.35) rotate(-27.58)"/></g><path id="Path_82-4" data-name="Path 82-4" class="cls-4" d="M1146.86,3533.78a172.2,172.2,0,0,1,225.95-259.92l.5.43L1471.81,3161l-242.69-211-423,486.57,242.69,211,98.51-113.32Z" transform="translate(0 0)"/><circle id="Ellipse_6-4" data-name="Ellipse 6-4" class="cls-1" cx="646.47" cy="3647.52" r="151.63"/></g></g><g id="Group_74-3" data-name="Group 74-3"><rect id="Rectangle_31-5" data-name="Rectangle 31-5" class="cls-1" x="611.89" y="3908.27" width="477.5" height="102.1" transform="translate(-1181.87 456.65) rotate(-18)"/><g id="Group_65-5" data-name="Group 65-5" class="cls-2"><rect id="Rectangle_20-5" data-name="Rectangle 20-5" class="cls-3" x="1084.67" y="4102.12" width="329.47" height="329.47" transform="translate(-3110.88 3398) rotate(-62.41)"/></g><path id="Path_82-5" data-name="Path 82-5" class="cls-4" d="M327,4400.78A172.2,172.2,0,0,0,101,4140.86l-.5.43L2,4028l242.69-211,423,486.57L425,4514.54l-98.51-113.32Z" transform="translate(0 0)"/><circle id="Ellipse_6-5" data-name="Ellipse 6-5" class="cls-1" cx="827.35" cy="4514.52" r="151.63"/></g></g></svg>