<svg id="Layer_1" data-name="Layer 1" xmlns="http://www.w3.org/2000/svg" viewBox="0 0 126.2 86.48"><defs><style>.cls-1{fill:#ca351e;}.cls-2{fill:#2a4bb3;}.cls-3{fill:#e6a139;}</style></defs><title>ce_este_4</title><g id="ce_este_4" data-name="ce este 4"><path id="Path_105" data-name="Path 105" class="cls-1" d="M122.11,86.47H1.08A1.08,1.08,0,0,1,0,85.4H0V61.28A1.08,1.08,0,0,1,1.08,60.2h121a1.08,1.08,0,0,1,1.08,1.08h0V85.39a1.08,1.08,0,0,1-1.07,1.08Zm-120-2.15H121v-22H2.15Z" transform="translate(0 0)"/><path id="Path_106" data-name="Path 106" class="cls-2" d="M125.12,60H19.21a1.08,1.08,0,0,1-1.08-1.08h0V36.3a1.08,1.08,0,0,1,1.07-1.08H125.12a1.08,1.08,0,0,1,1.08,1.08h0V58.91A1.08,1.08,0,0,1,125.12,60ZM20.29,57.84H124V37.37H20.29Z" transform="translate(0 0)"/><path id="Path_107" data-name="Path 107" class="cls-3" d="M105.59,35H3.54a1.08,1.08,0,0,1-1.08-1.08V20.08A1.08,1.08,0,0,1,3.54,19H105.59a1.08,1.08,0,0,1,1.08,1.08h0V33.93A1.08,1.08,0,0,1,105.59,35Zm-101-2.15h99.9V21.16H4.62Z" transform="translate(0 0)"/><path id="Path_108" data-name="Path 108" class="cls-2" d="M113.18,18.79H7.27a1.08,1.08,0,0,1-1.08-1.08V1.07A1.08,1.08,0,0,1,7.27,0H113.18a1.08,1.08,0,0,1,1.08,1.08h0V17.71a1.08,1.08,0,0,1-1.07,1.08ZM8.35,16.64H112.1V2.15H8.34Z" transform="translate(0 0)"/></g></svg>