<svg id="Layer_1" data-name="Layer 1" xmlns="http://www.w3.org/2000/svg" viewBox="0 0 110.96 112.26"><defs><style>.cls-1{fill:#2a4bb3;}.cls-2{fill:#ca351e;}.cls-3{fill:#15170a;}.cls-4{fill:#e6a139;}</style></defs><title>ce_este_6</title><g id="ce_este_6" data-name="ce este 6"><path id="Path_58" data-name="Path 58" class="cls-1" d="M110.16,112.27H.81a.8.8,0,0,1-.8-.8H0V56.92a.8.8,0,0,1,.8-.8H26.28a.8.8,0,0,1,.8.8h0V57a28.41,28.41,0,0,0,56.81,0v-.11a.8.8,0,0,1,.8-.8h25.47a.8.8,0,0,1,.8.8h0v54.54A.8.8,0,0,1,110.16,112.27ZM1.61,110.67H109.36V57.72H85.49a30,30,0,0,1-60,0H1.61Z" transform="translate(-0.01 0)"/><path id="Path_59" data-name="Path 59" class="cls-2" d="M110.16,56.15H84.69a.8.8,0,0,1-.8-.8h0v-.11a28.41,28.41,0,0,0-56.81,0v.11a.8.8,0,0,1-.8.8H.81a.8.8,0,0,1-.8-.8H0V.8A.8.8,0,0,1,.81,0H110.17a.8.8,0,0,1,.8.8h0V55.35a.8.8,0,0,1-.8.8ZM85.49,54.54h23.87V1.61H1.61V54.55H25.48a30,30,0,0,1,60,0Z" transform="translate(-0.01 0)"/><path id="Path_60" data-name="Path 60" class="cls-2" d="M43.78,80A13.19,13.19,0,1,1,57,66.86,13.19,13.19,0,0,1,43.78,80Zm0-24.77A11.58,11.58,0,1,0,55.36,66.86,11.58,11.58,0,0,0,43.78,55.28Z" transform="translate(-0.01 0)"/><path id="Path_61" data-name="Path 61" class="cls-3" d="M53.42,55.67A13.19,13.19,0,1,1,66.6,42.49,13.19,13.19,0,0,1,53.42,55.67Zm0-24.77A11.58,11.58,0,1,0,65,42.49,11.58,11.58,0,0,0,53.42,30.91Z" transform="translate(-0.01 0)"/><path id="Path_62" data-name="Path 62" class="cls-4" d="M69.85,76.08A13.19,13.19,0,1,1,83,62.89h0A13.2,13.2,0,0,1,69.85,76.08Zm0-24.77A11.58,11.58,0,1,0,81.43,62.89,11.58,11.58,0,0,0,69.85,51.31Z" transform="translate(-0.01 0)"/></g></svg>