<svg id="Layer_1" data-name="Layer 1" xmlns="http://www.w3.org/2000/svg" viewBox="0 0 132.2 69.96"><defs><style>.cls-1{fill:#2a4bb3;}.cls-2{fill:#ca351e;}</style></defs><title>ce_este_5</title><g id="ce_este_5" data-name="ce este 5"><path id="Path_90" data-name="Path 90" class="cls-1" d="M63.79,70a17,17,0,0,1-2.19-.14,16.6,16.6,0,1,1,2.19.14Zm0-31.95A15.29,15.29,0,1,0,78.91,55.28h0A15.29,15.29,0,0,0,65.73,38.15a15.46,15.46,0,0,0-2-.13Z" transform="translate(0 0)"/><path id="Path_91" data-name="Path 91" class="cls-2" d="M128,45.13h-.09L.59,28.55A.69.69,0,0,1,0,27.78L3.55.6A.69.69,0,0,1,4.31,0L131.6,16.59a.68.68,0,0,1,.59.77h0l-3.54,27.18A.68.68,0,0,1,128,45.13ZM1.45,27.28,127.39,43.68l3.36-25.83L4.82,1.45Z" transform="translate(0 0)"/></g></svg>