<svg id="Layer_1" data-name="Layer 1" xmlns="http://www.w3.org/2000/svg" viewBox="0 0 108.2 92.87"><defs><style>.cls-1{fill:#ca351e;}.cls-2{fill:#2a4bb3;}</style></defs><title>ce_este_0</title><g id="ce_este_0" data-name="ce este 0"><path id="Path_95" data-name="Path 95" class="cls-1" d="M41.58,49.46a1,1,0,0,1-1-1c0-9.73-8.68-17.65-19.35-17.65S1.92,38.77,1.92,48.5A1,1,0,0,1,0,48.5C0,37.71,9.54,28.94,21.27,28.94S42.54,37.71,42.54,48.5a1,1,0,0,1-1,1Z" transform="translate(0 0)"/><path id="Path_96" data-name="Path 96" class="cls-1" d="M85,49.46a1,1,0,0,1-1-1c0-9.73-8.68-17.65-19.35-17.65S45.31,38.77,45.31,48.5a1,1,0,0,1-1.92,0c0-10.79,9.54-19.57,21.27-19.57S85.93,37.71,85.93,48.5a1,1,0,0,1-1,1Z" transform="translate(0 0)"/><path id="Path_97" data-name="Path 97" class="cls-1" d="M21.4,25A12.49,12.49,0,1,1,33.89,12.49h0A12.51,12.51,0,0,1,21.4,25Zm0-23.06A10.57,10.57,0,1,0,32,12.49,10.57,10.57,0,0,0,21.4,1.92Z" transform="translate(0 0)"/><path id="Path_98" data-name="Path 98" class="cls-1" d="M66.18,25A12.49,12.49,0,1,1,78.68,12.49h0A12.5,12.5,0,0,1,66.18,25Zm0-23.06A10.57,10.57,0,1,0,76.76,12.49h0A10.58,10.58,0,0,0,66.18,1.92Z" transform="translate(0 0)"/><path id="Path_99" data-name="Path 99" class="cls-2" d="M43,92.87a43,43,0,0,1-43-43,1,1,0,0,1,1-1H85a1,1,0,0,1,1,1A43,43,0,0,1,43,92.87Zm-41-42a41,41,0,0,0,82.07,0Z" transform="translate(0 0)"/><path id="Path_100" data-name="Path 100" class="cls-2" d="M84.22,73.88a24.1,24.1,0,0,1-5.5-.63,1,1,0,0,1,.44-1.87,22.08,22.08,0,0,0,27.1-20.51H86.17a1,1,0,0,1,0-1.92h21.06a1,1,0,0,1,1,1A24,24,0,0,1,84.22,73.88Z" transform="translate(0 0)"/></g></svg>