<svg id="Layer_1" data-name="Layer 1" xmlns="http://www.w3.org/2000/svg" viewBox="0 0 118.76 125.95"><defs><style>.cls-1{fill:#ca351e;}.cls-2{fill:#2a4bb3;}.cls-3{fill:#e6a139;}</style></defs><title>ce_este_3</title><g id="ce_este_3" data-name="ce este 3"><path id="Path_102" data-name="Path 102" class="cls-1" d="M59.38,126a1,1,0,0,1-.68-.28L.29,68.35A1,1,0,0,1,1,66.68H117.79a1,1,0,0,1,.68,1.67l-58.4,57.32A1,1,0,0,1,59.38,126Zm-56-57.32,56,55,56-55Z" transform="translate(0 0)"/><path id="Path_103" data-name="Path 103" class="cls-2" d="M74.31,66.64H44.46a1,1,0,0,1-1-1h0V35.81a1,1,0,0,1,1-1H74.31a1,1,0,0,1,1,1h0V65.67a1,1,0,0,1-1,1Zm-28.88-2h27.9V36.79H45.43Z" transform="translate(0 0)"/><path id="Path_104" data-name="Path 104" class="cls-3" d="M28.93,40.05A1,1,0,0,1,28,39.4l-10-28.15a1,1,0,0,1,.6-1.25h0L46.8.06A1,1,0,0,1,48,.66L58,28.8A1,1,0,0,1,57.41,30h0L29.26,40A1,1,0,0,1,28.93,40.05ZM20.22,11.53l9.3,26.3,26.3-9.3-9.3-26.3Z" transform="translate(0 0)"/></g></svg>