<svg id="Layer_1" data-name="Layer 1" xmlns="http://www.w3.org/2000/svg" viewBox="0 0 69.4 118.97"><defs><style>.cls-1{fill:#2a4bb3;}.cls-2{fill:#ca351e;}.cls-3{fill:#15170a;}</style></defs><title>ce_este_2</title><g id="ce_este_2" data-name="ce este 2"><path id="Path_44" data-name="Path 44" class="cls-1" d="M15.28,119H6.17a.86.86,0,0,1-.86-.86h0V88.33a.86.86,0,0,1,.86-.86h9.11a.86.86,0,0,1,.86.86h0v29.78a.86.86,0,0,1-.86.86ZM7,117.24h7.38v-28H7Z" transform="translate(0 0)"/><path id="Path_45" data-name="Path 45" class="cls-1" d="M64.62,119H55.51a.86.86,0,0,1-.86-.86V88.33a.86.86,0,0,1,.86-.86h9.11a.86.86,0,0,1,.86.86h0v29.78a.86.86,0,0,1-.86.86Zm-8.25-1.73h7.38v-28H56.37Z" transform="translate(0 0)"/><path id="Path_46" data-name="Path 46" class="cls-2" d="M34.67,19.12a9.56,9.56,0,1,1,9.56-9.56h0A9.57,9.57,0,0,1,34.67,19.12Zm0-17.39A7.83,7.83,0,1,0,42.5,9.56h0A7.84,7.84,0,0,0,34.67,1.73Z" transform="translate(0 0)"/><g id="Group_37" data-name="Group 37"><path id="Path_47" data-name="Path 47" class="cls-3" d="M34.76,54.15h-.11A17,17,0,0,1,17.73,37a.86.86,0,0,1,.86-.86h0l32.31.21a.86.86,0,0,1,.86.87h0a17,17,0,0,1-17,16.91ZM19.48,37.89A15.31,15.31,0,0,0,34.65,52.42h.1A15.29,15.29,0,0,0,50,38.09Z" transform="translate(0 0)"/><path id="Path_48" data-name="Path 48" class="cls-3" d="M50.61,46.95h-.06a9.7,9.7,0,0,1-2.23-.27A.87.87,0,0,1,48.73,45a8,8,0,0,0,1.83.22h.05a8,8,0,0,0,7.93-7.07l-7.19,0a.86.86,0,0,1,0-1.73h0l8.1.05a.86.86,0,0,1,.86.87h0A9.73,9.73,0,0,1,50.61,46.95Z" transform="translate(0 0)"/></g><path id="Path_49" data-name="Path 49" class="cls-2" d="M68.54,88.76H.87a.87.87,0,0,1-.61-1.48L34.09,54.08a.87.87,0,0,1,1.21,0L69.14,87.28a.87.87,0,0,1-.61,1.48ZM3,87H66.42L34.7,55.91Z" transform="translate(0 0)"/></g></svg>