<svg id="Layer_1" data-name="Layer 1" xmlns="http://www.w3.org/2000/svg" viewBox="0 0 87.2 105.29"><defs><style>.cls-1{fill:#2a4bb3;}.cls-2{fill:#ca351e;}.cls-3{fill:#e6a139;}</style></defs><title>ce_este_1</title><g id="ce_este_1" data-name="ce este 1"><path id="Path_38" data-name="Path 38" class="cls-1" d="M84.89,83.45a1.08,1.08,0,0,1-1.08-1A40.1,40.1,0,0,0,63.09,50.16a1.09,1.09,0,1,1,1-1.94l.07,0A42.26,42.26,0,0,1,86,82.28a1.09,1.09,0,0,1-1,1.16Z" transform="translate(0 0)"/><path id="Path_39" data-name="Path 39" class="cls-1" d="M3.57,82.45l-2.17-.16A42.53,42.53,0,0,1,21.34,49.38l1.15,1.84A40.35,40.35,0,0,0,3.57,82.45Z" transform="translate(0 0)"/><path id="Path_40" data-name="Path 40" class="cls-1" d="M43.6,34.58A17.29,17.29,0,1,1,60.89,17.29h0A17.31,17.31,0,0,1,43.6,34.58Zm0-32.41A15.12,15.12,0,1,0,58.72,17.29h0A15.14,15.14,0,0,0,43.6,2.17Z" transform="translate(0 0)"/><path id="Path_41" data-name="Path 41" class="cls-2" d="M63.61,83A1.08,1.08,0,0,1,62.53,82h0V43H23V82a1.09,1.09,0,1,1-2.17,0V42a1.08,1.08,0,0,1,1.08-1.09h41.7A1.09,1.09,0,0,1,64.69,42h0V82A1.08,1.08,0,0,1,63.61,83Z" transform="translate(0 0)"/><path id="Path_42" data-name="Path 42" class="cls-3" d="M86.11,105.29h-85A1.09,1.09,0,0,1,0,104.2V82.36a1.09,1.09,0,0,1,1.08-1.09h85a1.08,1.08,0,0,1,1.08,1.08h0V104.2A1.08,1.08,0,0,1,86.11,105.29ZM2.17,103.11H85V83.45H2.17Z" transform="translate(0 0)"/></g></svg>