<svg id="Layer_1" data-name="Layer 1" xmlns="http://www.w3.org/2000/svg" viewBox="0 0 154.01 106.92"><defs><style>.cls-1{fill:#2a4bb3;}.cls-2{fill:#ca351e;}.cls-3{fill:#15170a;}.cls-4{fill:#e6a139;}</style></defs><title>logo</title><g id="logo"><g id="Group_15" data-name="Group 15"><g id="Group_7" data-name="Group 7"><path id="Path_4" data-name="Path 4" class="cls-1" d="M101.24,61H89.53a.61.61,0,0,1-.61-.61h0a11.11,11.11,0,0,0-22.22,0,.61.61,0,0,1-.61.61H54.39a.61.61,0,0,1-.61-.61h0V37a.61.61,0,0,1,.61-.61h46.86a.61.61,0,0,1,.61.61h0V60.39a.61.61,0,0,1-.6.61ZM90.12,59.78h10.52V37.56H55V59.78H65.51a12.32,12.32,0,0,1,24.61,0Z" transform="translate(0 0)"/></g><g id="Group_8" data-name="Group 8"><path id="Path_5" data-name="Path 5" class="cls-2" d="M101.25,37.56H54.39a.61.61,0,0,1-.43-1L77.39,13.1a.6.6,0,0,1,.86,0h0l23.43,23.43a.61.61,0,0,1-.43,1ZM55.85,36.35H99.79l-22-22Z" transform="translate(0 0)"/></g><g id="Group_9" data-name="Group 9"><path id="Path_6" data-name="Path 6" class="cls-3" d="M77.94,12.93h0A12.33,12.33,0,0,1,65.62.61.61.61,0,0,1,66.23,0H89.66a.61.61,0,0,1,.61.61h0A12.33,12.33,0,0,1,77.94,12.93ZM66.85,1.21A11.11,11.11,0,0,0,89,1.21Z" transform="translate(0 0)"/></g><g id="Group_10" data-name="Group 10"><path id="Path_7" data-name="Path 7" class="cls-2" d="M40.53,61A6.46,6.46,0,0,1,36,50h0a6.46,6.46,0,1,1,4.57,11ZM36.82,50.82a5.25,5.25,0,1,0,7.43,0h0A5.26,5.26,0,0,0,36.82,50.82Z" transform="translate(0 0)"/></g><g id="Group_11" data-name="Group 11"><path id="Path_8" data-name="Path 8" class="cls-2" d="M121,61H109.24a.61.61,0,0,1-.61-.61V48.67a.61.61,0,0,1,.61-.61H121a.61.61,0,0,1,.61.61V60.39a.61.61,0,0,1-.61.6Zm-11.11-1.21h10.5V49.28h-10.5Z" transform="translate(0 0)"/></g><g id="Group_12" data-name="Group 12"><path id="Path_9" data-name="Path 9" class="cls-4" d="M50.68,52.06a.61.61,0,0,1-.26-.06L29.2,42.09a.6.6,0,0,1-.29-.8h0L31.38,36a.61.61,0,0,1,.81-.29l10.61,5h0l10.61,5a.61.61,0,0,1,.29.81h0l-2.48,5.31a.61.61,0,0,1-.34.31A.59.59,0,0,1,50.68,52.06ZM30.26,41.25l20.13,9.4,2-4.21L32.22,37Z" transform="translate(0 0)"/></g><g id="Group_13" data-name="Group 13"><path id="Path_10" data-name="Path 10" class="cls-4" d="M106.84,48.94a.61.61,0,0,1-.56-.38L101.89,37.7a.61.61,0,0,1,.33-.79l10.86-4.39a.6.6,0,0,1,.78.32h0l4.39,10.86a.61.61,0,0,1-.33.79h0L107.07,48.9A.61.61,0,0,1,106.84,48.94Zm-3.6-11.13,3.94,9.74,9.74-3.94L113,33.87Z" transform="translate(0 0)"/></g><g id="Group_14" data-name="Group 14"><path id="Path_11" data-name="Path 11" class="cls-3" d="M89.66,7.07H88.09a.61.61,0,1,1,0-1.21h1.57a5.26,5.26,0,0,0,5.22-4.64H89.66a.61.61,0,1,1,0-1.21h5.86a.61.61,0,0,1,.61.61h0A6.47,6.47,0,0,1,89.66,7.07Z" transform="translate(0 0)"/></g></g><g id="Group_25" data-name="Group 25"><g id="Group_24" data-name="Group 24"><g id="Group_16" data-name="Group 16"><path id="Path_12" data-name="Path 12" d="M0,95.12c0-6.94,4.68-11.79,12-11.79a12.14,12.14,0,0,1,7.75,2.61L19,87a10.71,10.71,0,0,0-7-2.42C5.59,84.62,1.36,89,1.36,95.12s4.23,10.5,10.66,10.5a10.72,10.72,0,0,0,7-2.42l.81,1.1A12.14,12.14,0,0,1,12,106.92C4.68,106.91,0,102.06,0,95.12Z" transform="translate(0 0)"/></g><g id="Group_17" data-name="Group 17"><path id="Path_13" data-name="Path 13" d="M38.2,99.83H26.51l-2.68,6.59H22.48l9.2-22.61H33l9.2,22.61H40.88Zm-.52-1.23L32.36,85.5,27,98.61Z" transform="translate(0 0)"/></g><g id="Group_18" data-name="Group 18"><path id="Path_14" data-name="Path 14" d="M47.66,85V93.7H57.87v1.23H47.66v11.5H46.37V83.82H58.8V85Z" transform="translate(0 0)"/></g><g id="Group_19" data-name="Group 19"><path id="Path_15" data-name="Path 15" d="M76,105.2v1.23H63.58V83.82H75.85V85h-11v8H75v1.23H64.87V105.2Z" transform="translate(0 0)"/></g><g id="Group_20" data-name="Group 20"><path id="Path_16" data-name="Path 16" d="M87.51,96.25H82.73v10.17H81.44V83.82h7.23c3.78,0,6.81,2,6.81,6.2,0,4.07-2.81,6.07-6.43,6.23l7,10.17H94.39ZM82.73,95h5.94c3.33,0,5.46-1.81,5.46-5S92,85,88.67,85H82.73Z" transform="translate(0 0)"/></g><g id="Group_21" data-name="Group 21"><path id="Path_17" data-name="Path 17" d="M101.94,106.42h-1.29V83.82h1.29Z" transform="translate(0 0)"/></g><g id="Group_22" data-name="Group 22"><path id="Path_18" data-name="Path 18" d="M125.32,106.42h-1.45L109.69,86h-.06v20.44h-1.29V83.82h1.45L124,104.26H124V83.82h1.29Z" transform="translate(0 0)"/></g><g id="Group_23" data-name="Group 23"><path id="Path_19" data-name="Path 19" d="M154,95.12a11.79,11.79,0,1,1-11.79-11.79h0a11.4,11.4,0,0,1,11.79,11Q154,94.72,154,95.12Zm-22.22,0a10.43,10.43,0,1,0,10.43-10.5,10.06,10.06,0,0,0-10.44,9.66q0,.42,0,.84Z" transform="translate(0 0)"/></g></g></g></g></svg>